<svg width="77" height="25" viewBox="0 0 77 25" fill="none" xmlns="http://www.w3.org/2000/svg">
<path d="M76.2659 10.5562H71.2158V24.2403H66.5242V10.5562H61.4741V7.2004H76.2659V10.5562Z" fill="#171717"/>
<path d="M52.0284 24.5986C49.3785 24.5986 47.2607 23.8276 45.6751 22.2854C43.9809 20.7215 43.1338 18.6037 43.1338 15.9321V15.6714C43.1338 13.0215 43.9809 10.8712 45.6751 9.22042C47.3259 7.61309 49.4002 6.80942 51.8981 6.80942C54.2656 6.80942 56.1988 7.49362 57.6975 8.86202C59.37 10.3825 60.2062 12.5871 60.2062 15.476V16.7792H47.9232C47.9884 18.2128 48.3793 19.3205 49.0961 20.1025C49.8346 20.8627 50.8555 21.2428 52.1587 21.2428C54.2005 21.2428 55.3842 20.45 55.71 18.8644H60.1736C59.8913 20.7106 59.0442 22.1333 57.6323 23.1325C56.2422 24.1099 54.3742 24.5986 52.0284 24.5986ZM55.6123 13.8795C55.4603 11.3382 54.2222 10.0675 51.8981 10.0675C50.8338 10.0675 49.9541 10.4042 49.259 11.0775C48.5857 11.7291 48.1621 12.6631 47.9884 13.8795H55.6123ZM50.1713 4.00746C49.7151 4.46359 49.1504 4.69166 48.4771 4.69166C47.8037 4.69166 47.2281 4.46359 46.7503 4.00746C46.2941 3.55133 46.0661 2.99745 46.0661 2.34583C46.0661 1.69421 46.2941 1.14033 46.7503 0.684199C47.2281 0.228066 47.8037 0 48.4771 0C49.1504 0 49.7151 0.228066 50.1713 0.684199C50.6491 1.14033 50.8881 1.69421 50.8881 2.34583C50.8881 2.99745 50.6491 3.55133 50.1713 4.00746ZM56.8178 4.00746C56.3617 4.46359 55.7969 4.69166 55.1236 4.69166C54.4503 4.69166 53.8747 4.46359 53.3968 4.00746C52.9407 3.55133 52.7126 2.99745 52.7126 2.34583C52.7126 1.69421 52.9407 1.14033 53.3968 0.684199C53.8747 0.228066 54.4503 0 55.1236 0C55.7969 0 56.3617 0.228066 56.8178 0.684199C57.2957 1.14033 57.5346 1.69421 57.5346 2.34583C57.5346 2.99745 57.2957 3.55133 56.8178 4.00746Z" fill="#171717"/>
<path d="M30.3343 17.2353C30.052 19.7332 29.5307 21.5795 28.7704 22.7741C28.0102 23.9687 26.8047 24.5661 25.154 24.5661C24.5675 24.5661 24.1548 24.5226 23.9159 24.4357L23.5249 24.3054V20.5586C23.5466 20.5803 23.6009 20.602 23.6878 20.6238C23.8616 20.6672 24.0462 20.6889 24.2417 20.6889C24.8499 20.6889 25.306 20.3305 25.6101 19.6138C25.9142 18.8753 26.1314 17.7675 26.2617 16.2905C26.2834 15.943 26.3051 15.4868 26.3269 14.9221C26.3703 14.3574 26.4029 13.6732 26.4246 12.8695C26.4681 12.0441 26.5006 11.3925 26.5224 10.9146C26.5658 9.35074 26.5875 8.11267 26.5875 7.2004H39.7176V24.2403H35.0586V10.5562H30.6601C30.6167 13.4885 30.5081 15.7149 30.3343 17.2353Z" fill="#171717"/>
<path d="M11.6966 24.5986C7.9389 24.5986 5.03919 23.5126 2.99745 21.3405C0.99915 19.2771 0 16.41 0 12.7392V12.4785C0 8.95977 1.10775 6.09264 3.32326 3.87714C5.4736 1.68335 8.22126 0.58646 11.5662 0.58646C14.4768 0.58646 16.8335 1.28152 18.6363 2.67164C20.5477 4.17037 21.6338 6.29899 21.8944 9.05751H16.486C16.095 6.19039 14.466 4.75682 11.5988 4.75682C9.75257 4.75682 8.28643 5.44102 7.2004 6.80942C6.11436 8.15611 5.57135 10.0349 5.57135 12.4459V12.7066C5.57135 15.1393 6.09264 17.0181 7.13523 18.3431C8.19955 19.668 9.69827 20.3305 11.6314 20.3305C13.1084 20.3305 14.3139 19.9613 15.2479 19.2228C16.1819 18.4626 16.7575 17.3439 16.9747 15.8669H22.1551C21.8727 18.7123 20.7758 20.8844 18.8644 22.3831C17.0181 23.8601 14.6289 24.5986 11.6966 24.5986Z" fill="#171717"/>
</svg>
