<svg width="16" height="16" viewBox="0 0 16 16" fill="none" xmlns="http://www.w3.org/2000/svg">
<path d="M11.6867 5.18004C11.64 5.17337 11.5934 5.17337 11.5467 5.18004C10.5134 5.14671 9.69336 4.30004 9.69336 3.26004C9.69336 2.20004 10.5534 1.33337 11.62 1.33337C12.68 1.33337 13.5467 2.19337 13.5467 3.26004C13.54 4.30004 12.72 5.14671 11.6867 5.18004Z" fill="#171717"/>
<path d="M13.8602 9.80002C13.1136 10.3 12.0669 10.4867 11.1002 10.36C11.3536 9.81336 11.4869 9.20669 11.4936 8.56669C11.4936 7.90003 11.3469 7.26669 11.0669 6.71336C12.0536 6.58002 13.1002 6.76669 13.8536 7.26669C14.9069 7.96002 14.9069 9.10002 13.8602 9.80002Z" fill="#171717"/>
<path d="M4.29327 5.18004C4.33994 5.17337 4.38661 5.17337 4.43327 5.18004C5.46661 5.14671 6.28661 4.30004 6.28661 3.26004C6.28661 2.19337 5.42661 1.33337 4.35994 1.33337C3.29994 1.33337 2.43994 2.19337 2.43994 3.26004C2.43994 4.30004 3.25994 5.14671 4.29327 5.18004Z" fill="#171717"/>
<path d="M4.36675 8.5667C4.36675 9.21336 4.50674 9.8267 4.76008 10.38C3.82008 10.48 2.84008 10.28 2.12008 9.8067C1.06674 9.1067 1.06674 7.96669 2.12008 7.26669C2.83341 6.78669 3.84008 6.59336 4.78674 6.70003C4.51341 7.26003 4.36675 7.89336 4.36675 8.5667Z" fill="#171717"/>
<path d="M8.08019 10.58C8.02686 10.5733 7.96686 10.5733 7.90686 10.58C6.68019 10.54 5.7002 9.53333 5.7002 8.29333C5.70686 7.02667 6.72686 6 8.0002 6C9.26686 6 10.2935 7.02667 10.2935 8.29333C10.2869 9.53333 9.31353 10.54 8.08019 10.58Z" fill="#171717"/>
<path d="M5.9132 11.96C4.90654 12.6333 4.90654 13.74 5.9132 14.4067C7.05987 15.1733 8.93987 15.1733 10.0865 14.4067C11.0932 13.7333 11.0932 12.6267 10.0865 11.96C8.94654 11.1933 7.06654 11.1933 5.9132 11.96Z" fill="#171717"/>
</svg>
